<svg xmlns="http://www.w3.org/2000/svg" width="16" height="16" viewBox="0 0 10 10" fill="white">
	<circle cx="1" cy="4" r="1" />
	<line x1="1" y1="4" x2="3" y2="1" stroke-width="0.8" stroke="white" />
	<circle cx="3" cy="1" r="1" />
	<line x1="7" y1="2" x2="3" y2="1" stroke-width="0.8" stroke="white" />
	<circle cx="7" cy="2" r="1.3" />
	<line x1="7" y1="2" x2="4" y2="4" stroke-width="0.8" stroke="white" />
	<circle cx="4" cy="4" r="1.5" />
	<line x1="1" y1="8" x2="4" y2="4" stroke-width="0.8" stroke="white" />
	<circle cx="1" cy="8" r="1" />
	<line x1="1" y1="8" x2="5.5" y2="7" stroke-width="0.8" stroke="white" />
	<circle cx="5.5" cy="7" r="1.3" />
	<line x1="9" y1="9" x2="5.5" y2="7" stroke-width="0.8" stroke="white" />
	<circle cx="9" cy="9" r="1" />
	<line x1="5.5" y1="7" x2="4" y2="4" stroke-width="0.8" stroke="white" />
	<line x1="1" y1="4" x2="1" y2="8" stroke-width="0.8" stroke="white" />
	<line x1="9" y1="9" x2="7" y2="2" stroke-width="0.8" stroke="white" />
	<line x1="1" y1="4" x2="4" y2="4" stroke-width="0.8" stroke="white" />
</svg>
